<?xml version="1.0" standalone="no"?>
<!DOCTYPE svg PUBLIC "-//W3C//DTD SVG 20010904//EN"
 "http://www.w3.org/TR/2001/REC-SVG-20010904/DTD/svg10.dtd">
<svg version="1.0" xmlns="http://www.w3.org/2000/svg"
 width="736.000000pt" height="830.000000pt" viewBox="0 0 736.000000 830.000000"
 preserveAspectRatio="xMidYMid meet">

<g transform="translate(0.000000,830.000000) scale(0.100000,-0.100000)"
fill="#000000" stroke="none">
<path d="M0 4150 l0 -4150 570 0 c314 0 570 2 570 4 0 2 -33 17 -72 31 -40 15
-116 46 -168 68 -52 22 -138 57 -190 77 -284 112 -520 211 -655 276 l-40 19
-3 712 -2 711 27 6 c115 24 523 81 823 116 617 71 1394 128 2045 150 165 6
327 12 360 15 33 2 63 4 68 5 4 0 7 33 7 73 0 61 11 148 35 282 10 54 17 70
36 85 18 14 3 16 -162 18 -307 4 -933 52 -1063 82 -53 12 -92 11 -46 -2 78
-21 272 -47 440 -58 80 -5 206 -14 280 -21 74 -6 151 -12 170 -14 19 -2 109
-3 199 -4 l163 -1 -14 -21 c-12 -18 -26 -23 -84 -25 -38 -2 -78 -6 -89 -8 -11
-3 -37 -1 -57 3 -28 7 -42 5 -59 -7 -16 -11 -24 -12 -27 -4 -6 19 -23 14 -20
-6 2 -12 -5 -18 -22 -20 -20 -2 -22 -1 -10 7 16 11 -52 9 -228 -8 -51 -5 -192
-7 -314 -6 -136 2 -231 -1 -247 -7 -14 -6 -66 -10 -116 -9 -49 1 -106 -3 -125
-9 -42 -14 -264 -32 -285 -24 -8 4 -15 11 -15 18 0 9 -63 12 -237 14 -131 2
-240 7 -243 11 -6 10 -198 7 -222 -4 -17 -7 -111 -3 -265 11 -46 4 -73 11 -73
18 0 14 -76 36 -125 36 -31 0 -35 -3 -35 -25 0 -21 -5 -25 -30 -25 -16 0 -30
5 -30 10 0 6 -4 10 -10 10 -5 0 -10 -9 -10 -20 0 -18 -2 -19 -20 -8 -16 10
-24 10 -40 0 -11 -7 -20 -9 -20 -4 0 9 -54 42 -69 42 -6 0 -11 -7 -11 -15 0
-11 -12 -15 -44 -15 -42 0 -45 2 -60 40 -13 32 -21 40 -41 40 -20 0 -25 -5
-25 -27 0 -26 -1 -26 -15 -7 -14 18 -14 18 -16 -6 -1 -19 -4 -16 -12 15 -16
59 -21 2160 -6 2198 9 21 8 31 -2 44 -11 13 -11 17 -2 20 10 3 14 41 15 136 1
73 3 102 5 64 2 -37 8 -65 13 -62 5 3 11 -4 15 -14 4 -12 12 -18 21 -14 17 6
19 39 2 46 -10 4 -10 6 0 6 7 1 12 16 12 41 0 38 2 40 30 40 28 0 30 -2 30
-40 0 -22 5 -40 11 -40 6 0 9 19 7 48 -2 38 -6 46 -20 44 -11 -2 -18 3 -18 13
0 17 23 20 49 6 10 -6 43 -7 74 -4 52 5 57 8 57 29 0 23 3 24 80 24 79 0 80 0
80 25 0 23 4 25 40 25 29 0 40 -4 40 -15 0 -19 11 -19 36 0 11 8 41 14 72 15
32 0 52 4 52 11 0 8 17 10 50 7 28 -3 53 -1 56 3 3 5 -1 9 -8 9 -7 0 0 12 15
25 32 28 69 32 87 10 23 -28 115 5 175 63 26 24 42 30 100 36 39 4 85 12 103
18 32 9 33 12 31 52 -2 23 1 47 5 54 15 24 26 11 26 -29 0 -41 0 -41 23 -26
12 8 22 23 22 33 0 12 14 25 38 37 21 10 40 24 43 32 7 17 34 21 34 5 0 -5 18
-10 40 -10 22 0 40 5 40 10 0 6 8 10 19 10 10 0 24 7 31 15 8 10 30 15 61 15
46 0 49 2 49 25 0 23 4 25 44 25 26 0 48 6 56 15 17 21 99 65 120 65 10 0 21
-6 23 -12 4 -10 6 -10 6 0 1 6 7 12 14 12 16 1 57 35 57 49 0 6 18 11 40 11
l40 0 0 50 c0 42 3 50 19 50 10 0 24 7 31 15 8 10 30 15 64 15 77 0 98 19 95
84 -1 29 1 58 5 64 10 17 26 15 26 -3 0 -8 5 -15 10 -15 6 0 10 18 10 40 0 29
4 40 15 40 11 0 15 11 15 40 0 29 4 40 15 40 11 0 15 11 15 40 0 22 5 40 10
40 6 0 10 18 10 40 0 38 2 40 30 40 20 0 30 5 30 15 0 11 11 15 40 15 l40 0 0
65 0 65 50 0 50 0 0 40 0 40 150 0 c102 0 150 3 150 11 0 6 14 24 31 40 27 25
40 29 120 35 68 5 89 10 89 21 0 13 -13 14 -80 8 -56 -5 -80 -4 -80 4 0 6 17
11 40 11 40 0 55 15 23 23 -17 4 -17 5 0 6 9 0 17 8 17 16 0 13 20 15 120 15
l120 0 0 40 0 40 40 0 c36 0 40 3 40 25 0 16 6 25 15 25 11 0 15 -11 15 -40 0
-36 3 -40 25 -40 20 0 25 -5 25 -25 0 -22 4 -25 40 -25 33 0 40 -3 40 -20 0
-17 7 -20 40 -20 39 0 40 1 40 35 0 34 1 35 40 35 29 0 40 4 40 15 0 11 -11
15 -40 15 -30 0 -40 4 -40 16 0 15 9 16 61 10 34 -3 70 -6 80 -6 11 0 19 -7
19 -15 0 -8 4 -15 10 -15 5 0 20 -11 34 -25 23 -23 33 -25 111 -25 l85 0 0 40
0 40 80 0 80 0 0 -40 0 -40 40 0 c38 0 40 -2 40 -29 0 -20 6 -32 19 -36 10 -3
26 -14 36 -25 18 -20 17 -20 -18 -20 -30 0 -37 -4 -37 -20 0 -17 -7 -20 -40
-20 -22 0 -40 -4 -40 -10 0 -5 18 -10 40 -10 22 0 40 -4 40 -10 0 -5 25 -10
55 -10 l55 0 0 -40 c0 -29 -4 -40 -15 -40 -11 0 -15 -11 -15 -40 0 -28 4 -40
14 -40 8 0 16 -7 20 -15 3 -8 15 -15 26 -15 11 0 20 -4 20 -10 0 -5 18 -10 40
-10 36 0 40 3 40 25 0 23 4 25 40 25 l40 0 0 -40 c0 -29 4 -40 15 -40 11 0 15
-11 15 -40 0 -36 -2 -40 -25 -40 l-25 0 0 -160 c0 -100 4 -160 10 -160 6 0 10
-11 10 -25 0 -22 4 -25 40 -25 29 0 40 -4 40 -15 0 -8 5 -15 10 -15 6 0 10
-17 10 -37 0 -31 5 -40 27 -50 32 -15 113 -17 113 -3 0 6 7 10 15 10 11 0 15
-11 15 -38 0 -41 14 -59 63 -80 15 -6 30 -19 33 -27 8 -19 34 -20 34 0 0 11
11 15 40 15 29 0 40 -4 40 -15 0 -10 10 -15 30 -15 22 0 30 -5 30 -18 0 -15
79 -92 94 -92 3 0 6 7 6 16 0 12 7 10 31 -10 17 -14 41 -26 53 -26 24 0 71
-29 48 -30 -22 0 -3 -19 34 -35 19 -8 37 -21 40 -30 4 -10 20 -15 50 -15 37 0
44 -3 44 -19 0 -23 16 -37 22 -19 3 8 14 3 32 -15 17 -17 38 -27 56 -27 16 0
31 -4 34 -9 3 -5 29 -15 57 -21 35 -9 53 -18 56 -31 5 -17 16 -19 107 -19 95
-1 136 -11 136 -34 0 -12 43 -45 58 -46 8 0 26 -8 40 -18 41 -28 62 -34 62
-17 0 10 10 15 30 15 17 0 30 5 30 10 0 6 5 10 10 10 6 0 10 -7 10 -15 0 -8
-4 -15 -10 -15 -5 0 -10 -11 -10 -25 0 -22 4 -25 33 -25 19 0 42 -8 55 -20 12
-11 28 -20 37 -20 8 0 15 -4 15 -9 0 -16 30 -41 48 -40 11 0 12 2 5 6 -15 5
-18 33 -4 33 5 0 14 -7 21 -15 7 -8 21 -15 32 -15 15 0 18 -5 13 -20 -4 -11
-3 -19 2 -18 19 5 115 -25 120 -38 3 -8 13 -14 22 -14 23 0 62 -29 41 -30 -12
0 -10 -4 4 -15 11 -8 26 -15 33 -15 8 0 19 -5 26 -10 7 -6 22 -19 35 -29 13
-11 47 -21 82 -25 33 -4 60 -11 60 -16 0 -6 8 -10 18 -10 9 0 23 -9 30 -20 6
-11 27 -26 45 -33 29 -13 69 -43 118 -90 11 -9 34 -17 54 -17 l35 0 0 1840 0
1840 -3680 0 -3680 0 0 -4150z m3860 2860 c-36 -12 -100 -12 -100 0 0 6 27 10
63 9 46 -1 56 -3 37 -9z m60 -20 c0 -5 -5 -10 -11 -10 -5 0 -7 5 -4 10 3 6 8
10 11 10 2 0 4 -4 4 -10z m-64 -35 c-31 -17 -96 -20 -96 -6 0 9 17 12 105 19
15 1 13 -2 -9 -13z m-1216 -375 l0 -40 -40 0 -40 0 0 40 0 40 40 0 40 0 0 -40z
m2110 -480 c0 -100 -2 -120 -15 -120 -12 0 -15 20 -15 120 0 100 3 120 15 120
13 0 15 -20 15 -120z m130 -240 c0 -22 -4 -40 -10 -40 -5 0 -10 18 -10 40 0
22 5 40 10 40 6 0 10 -18 10 -40z m-3897 -527 c-7 -2 -19 -2 -25 0 -7 3 -2 5
12 5 14 0 19 -2 13 -5z m-200 -40 c-13 -2 -33 -2 -45 0 -13 2 -3 4 22 4 25 0
35 -2 23 -4z m5572 -103 c3 -5 -3 -10 -14 -10 -12 0 -21 5 -21 10 0 6 6 10 14
10 8 0 18 -4 21 -10z m-6288 -172 c-3 -8 -6 -5 -6 6 -1 11 2 17 5 13 3 -3 4
-12 1 -19z m3243 -2452 c0 -2 -9 -6 -20 -9 -11 -3 -18 -1 -14 4 5 9 34 13 34
5z"/>
<path d="M4080 6745 c0 -11 11 -15 40 -15 29 0 40 4 40 15 0 11 -11 15 -40 15
-29 0 -40 -4 -40 -15z"/>
<path d="M3704 6695 c36 -19 56 -19 56 0 0 11 -11 15 -42 15 l-43 0 29 -15z"/>
<path d="M4240 6690 c0 -5 18 -10 40 -10 22 0 40 5 40 10 0 6 -18 10 -40 10
-22 0 -40 -4 -40 -10z"/>
<path d="M4130 6660 c0 -5 7 -10 15 -10 8 0 15 5 15 10 0 6 -7 10 -15 10 -8 0
-15 -4 -15 -10z"/>
<path d="M3888 6603 c6 -2 18 -2 25 0 6 3 1 5 -13 5 -14 0 -19 -2 -12 -5z"/>
<path d="M4320 6580 c0 -16 5 -21 23 -18 12 2 22 10 22 18 0 8 -10 16 -22 18
-18 3 -23 -2 -23 -18z"/>
<path d="M2880 6530 c0 -5 18 -10 40 -10 22 0 40 5 40 10 0 6 -18 10 -40 10
-22 0 -40 -4 -40 -10z"/>
<path d="M4455 6370 c3 -5 10 -10 16 -10 5 0 9 5 9 10 0 6 -7 10 -16 10 -8 0
-12 -4 -9 -10z"/>
<path d="M4590 6340 c0 -29 4 -40 15 -40 11 0 15 11 15 40 0 29 -4 40 -15 40
-11 0 -15 -11 -15 -40z"/>
<path d="M2400 5970 c0 -5 4 -10 9 -10 6 0 13 5 16 10 3 6 -1 10 -9 10 -9 0
-16 -4 -16 -10z"/>
<path d="M888 5263 c7 -3 16 -2 19 1 4 3 -2 6 -13 5 -11 0 -14 -3 -6 -6z"/>
<path d="M41 4954 c0 -11 3 -14 6 -6 3 7 2 16 -1 19 -3 4 -6 -2 -5 -13z"/>
<path d="M63 4870 c0 -41 2 -58 4 -37 2 20 2 54 0 75 -2 20 -4 3 -4 -38z"/>
<path d="M6427 4339 c7 -7 15 -10 18 -7 3 3 -2 9 -12 12 -14 6 -15 5 -6 -5z"/>
<path d="M6770 4046 c0 -2 8 -10 18 -17 15 -13 16 -12 3 4 -13 16 -21 21 -21
13z"/>
<path d="M6837 3966 c10 -13 19 -23 21 -21 5 5 -22 45 -31 45 -4 0 0 -11 10
-24z"/>
<path d="M6900 3861 c0 -6 4 -13 10 -16 6 -3 7 1 4 9 -7 18 -14 21 -14 7z"/>
<path d="M6967 3588 c-3 -18 -9 -42 -13 -52 -5 -13 -4 -17 3 -13 12 7 28 85
20 93 -2 3 -7 -10 -10 -28z"/>
<path d="M6917 3453 c-16 -30 -26 -57 -23 -60 6 -6 58 96 54 107 -2 4 -16 -17
-31 -47z"/>
<path d="M6822 3319 c-94 -103 -366 -270 -538 -330 -441 -154 -862 -243 -1345
-283 -286 -24 -641 -46 -740 -46 -53 0 -88 -4 -84 -9 6 -11 179 -7 350 8 195
17 443 23 422 10 -10 -6 -28 -8 -40 -5 -29 7 -102 -5 -87 -14 7 -4 -24 -11
-69 -15 -45 -4 -85 -4 -88 -1 -4 3 14 6 38 7 24 0 53 4 64 9 13 6 -17 7 -80 4
-74 -5 -103 -10 -112 -22 -8 -9 -13 -11 -13 -4 0 8 -24 12 -77 12 -54 0 -73
-3 -63 -10 12 -8 9 -10 -12 -10 -16 0 -28 -4 -28 -8 0 -12 -153 -30 -167 -20
-20 16 -58 5 -55 -14 4 -28 -27 -22 -40 7 -12 28 -19 30 -35 14 -8 -8 -15 -5
-25 10 -19 27 -31 15 -13 -13 12 -20 38 -186 51 -338 l5 -66 77 -6 c42 -3 185
-11 317 -16 835 -35 1039 -48 1675 -110 420 -41 914 -114 1146 -170 45 -11 87
-20 93 -20 8 0 11 198 11 720 l0 720 -40 0 c-36 0 -40 -2 -40 -25 0 -22 -4
-25 -39 -25 -23 0 -41 5 -44 13 -6 20 -34 -9 -48 -51 -9 -28 -9 -37 0 -40 9
-3 9 -7 0 -18 -21 -25 -29 -15 -30 39 l-1 52 -13 -30 c-8 -16 -12 -38 -9 -48
3 -9 3 -31 -1 -47 -9 -42 -36 -38 -65 10 -14 22 -27 40 -30 40 -3 0 -13 -14
-22 -30 -15 -26 -23 -30 -58 -30 -29 0 -40 4 -40 15 0 11 -11 15 -40 15 -29 0
-40 -4 -40 -15 0 -20 -10 -19 -36 6 -28 26 -59 19 -49 -11 4 -14 1 -22 -12
-27 -32 -12 -51 -37 -56 -73 -2 -19 -3 -11 -2 17 1 44 -1 51 -12 41 -11 -9
-19 -7 -35 9 l-20 21 23 7 c13 4 27 12 30 18 4 6 16 1 30 -12 12 -11 26 -21
31 -21 15 0 8 19 -12 33 -19 13 -19 15 -3 28 44 35 83 59 81 48 -2 -6 3 -14
10 -16 8 -3 10 1 6 11 -3 9 -1 16 5 16 15 0 14 -23 -1 -39 -11 -11 -10 -13 2
-9 9 3 15 17 16 35 1 25 -2 30 -15 26 -9 -3 0 10 18 30 19 21 36 37 38 37 1 0
2 -10 0 -22 -1 -14 4 -23 16 -26 9 -2 17 1 17 7 0 6 -7 8 -15 5 -8 -4 -15 -1
-15 5 0 6 5 11 11 11 8 0 8 5 -1 15 -12 14 -7 19 13 16 5 -1 5 4 1 10 -3 6 -1
15 6 19 7 4 11 12 9 17 -2 5 -28 -16 -57 -48z m-282 -243 c0 -2 -7 -7 -16 -10
-8 -3 -12 -2 -9 4 6 10 25 14 25 6z m60 -5 c0 -6 -4 -12 -9 -15 -13 -8 -42 4
-35 15 7 12 44 12 44 0z m-41 -25 c-12 -10 -60 -16 -54 -6 3 5 18 10 32 10 15
0 24 -2 22 -4z m-79 -16 c11 -8 8 -9 -11 -4 -15 3 -30 1 -33 -5 -4 -6 -13 -11
-19 -11 -7 0 -3 7 7 15 23 18 35 18 56 5z m-120 -40 c0 -5 -5 -10 -11 -10 -5
0 -7 5 -4 10 3 6 8 10 11 10 2 0 4 -4 4 -10z m40 -34 c0 -2 -7 -7 -16 -10 -8
-3 -12 -2 -9 4 6 10 25 14 25 6z m247 -68 c-3 -8 -6 -5 -6 6 -1 11 2 17 5 13
3 -3 4 -12 1 -19z m-1364 -175 c-7 -2 -19 -2 -25 0 -7 3 -2 5 12 5 14 0 19 -2
13 -5z m-196 -19 c-3 -3 -12 -4 -19 -1 -8 3 -5 6 6 6 11 1 17 -2 13 -5z m-254
-51 c-7 -2 -19 -2 -25 0 -7 3 -2 5 12 5 14 0 19 -2 13 -5z"/>
<path d="M6901 3354 c0 -11 3 -14 6 -6 3 7 2 16 -1 19 -3 4 -6 -2 -5 -13z"/>
<path d="M7335 3350 c-3 -5 1 -10 9 -10 9 0 16 5 16 10 0 6 -4 10 -9 10 -6 0
-13 -4 -16 -10z"/>
<path d="M6708 3183 c-30 -15 -37 -33 -14 -33 8 0 16 7 20 15 3 8 15 15 26 15
12 0 18 5 15 10 -8 12 -13 12 -47 -7z"/>
<path d="M6630 3119 c0 -6 -7 -9 -15 -5 -8 3 -15 1 -15 -4 0 -11 11 -13 34 -4
18 7 22 24 6 24 -5 0 -10 -5 -10 -11z"/>
<path d="M3640 3003 c-14 -9 -30 -24 -37 -33 -13 -16 -18 -132 -5 -144 4 -4
12 -26 17 -49 l11 -42 59 0 c59 0 59 0 66 33 4 18 15 39 25 46 18 14 30 108
19 153 -11 47 -107 69 -155 36z"/>
<path d="M1147 2999 c7 -7 15 -10 18 -7 3 3 -2 9 -12 12 -14 6 -15 5 -6 -5z"/>
<path d="M1210 2970 c8 -5 22 -9 30 -9 10 0 8 3 -5 9 -27 12 -43 12 -25 0z"/>
<path d="M1328 2928 c5 -5 16 -8 23 -6 8 3 3 7 -10 11 -17 4 -21 3 -13 -5z"/>
<path d="M1468 2883 c7 -3 16 -2 19 1 4 3 -2 6 -13 5 -11 0 -14 -3 -6 -6z"/>
<path d="M1765 2800 c11 -5 29 -9 40 -9 l20 0 -20 9 c-11 5 -29 9 -40 9 l-20
0 20 -9z"/>
<path d="M1838 2783 c6 -2 18 -2 25 0 6 3 1 5 -13 5 -14 0 -19 -2 -12 -5z"/>
<path d="M1888 2773 c6 -2 18 -2 25 0 6 3 1 5 -13 5 -14 0 -19 -2 -12 -5z"/>
<path d="M1995 2749 c22 -4 56 -8 75 -7 33 0 32 1 -10 9 -25 4 -58 7 -75 7
-26 0 -25 -1 10 -9z"/>
<path d="M3650 2710 c-19 -3 -55 -16 -80 -28 -25 -12 -52 -22 -60 -22 -16 -1
-60 -30 -44 -30 5 0 -6 -9 -23 -20 -18 -11 -33 -24 -33 -30 0 -14 17 -12 23 3
2 6 5 1 5 -13 0 -14 3 -45 8 -69 4 -28 3 -45 -4 -50 -9 -5 -9 -23 -1 -66 6
-33 15 -82 18 -110 9 -60 17 -44 25 47 4 43 3 67 -4 70 -16 5 -26 183 -11 192
8 6 11 -6 8 -40 -2 -27 1 -69 6 -94 9 -41 11 -43 18 -20 4 14 8 52 9 85 1 50
3 56 11 36 10 -25 6 -112 -6 -142 -3 -10 -2 -20 3 -23 5 -3 12 12 16 34 3 21
11 42 17 46 8 5 10 -76 8 -304 -2 -170 -7 -308 -10 -306 -4 2 -10 20 -13 39
-4 19 -15 39 -26 45 -11 6 -22 25 -25 43 -3 17 -8 41 -10 52 -2 11 -4 56 -4
100 -1 74 -2 78 -18 63 -13 -14 -14 -22 -5 -42 9 -20 8 -27 -4 -37 -17 -14
-12 -73 8 -96 8 -10 5 -13 -11 -13 -14 0 -21 -6 -21 -20 0 -23 10 -25 29 -7
11 10 13 9 8 -5 -3 -9 -9 -33 -13 -52 -7 -38 -24 -49 -24 -16 0 17 -6 20 -38
18 -21 0 -46 4 -57 9 -34 18 -100 20 -75 2 12 -8 10 -9 -7 -4 -14 4 -23 2 -23
-4 0 -6 12 -13 28 -17 52 -11 58 -17 22 -24 l-35 -6 40 -8 40 -9 -39 -11 c-38
-11 -39 -12 -22 -29 22 -22 24 -20 -42 -42 -29 -9 -51 -19 -49 -21 3 -3 54 -7
113 -11 60 -3 111 -7 112 -8 7 -6 -103 -72 -150 -91 -39 -16 -53 -29 -81 -75
-44 -75 -75 -165 -61 -179 6 -6 52 -19 102 -30 112 -22 119 -26 96 -51 -23
-25 -10 -39 48 -50 44 -8 147 4 180 22 22 12 24 29 3 29 -23 0 -18 19 8 29 12
4 55 11 96 15 117 10 168 31 234 95 70 67 117 132 117 161 0 38 -19 60 -50 60
-40 0 -42 36 -4 50 21 8 213 29 272 30 24 0 11 19 -18 25 -40 9 -46 23 -17 36
25 11 47 47 47 74 0 28 -44 43 -135 48 l-90 4 0 41 c0 22 -3 44 -7 48 -5 4 -8
11 -8 16 0 5 3 7 8 5 4 -3 7 5 8 16 0 12 4 43 7 70 8 47 1 57 -21 35 -8 -8
-12 -8 -12 -1 0 17 28 36 41 28 12 -8 11 -1 -7 228 -4 42 -11 80 -15 83 -5 3
-9 -5 -9 -18 -1 -20 -2 -21 -11 -5 -6 11 -7 23 -1 34 12 20 -1 68 -23 93 -9
10 -44 28 -78 40 -34 13 -71 28 -82 35 -26 16 -82 23 -125 15z m305 -322 c-3
-35 -13 -76 -20 -93 l-13 -30 -1 26 c-1 33 30 172 36 165 3 -3 2 -33 -2 -68z
m-60 -163 c4 -55 4 -97 0 -93 -5 5 -9 20 -10 35 -4 49 -16 167 -20 193 -4 22
-3 22 9 -5 8 -16 17 -75 21 -130z m85 -96 c0 -5 -4 -9 -10 -9 -5 0 -10 7 -10
16 0 8 5 12 10 9 6 -3 10 -10 10 -16z m-10 -44 c0 -8 -2 -15 -4 -15 -2 0 -6 7
-10 15 -3 8 -1 15 4 15 6 0 10 -7 10 -15z m-460 -185 c0 -5 -5 -10 -11 -10 -5
0 -7 5 -4 10 3 6 8 10 11 10 2 0 4 -4 4 -10z"/>
<path d="M3955 2641 c6 -10 112 -7 122 3 4 3 -24 6 -61 6 -39 0 -65 -4 -61 -9z"/>
<path d="M4248 2623 c7 -3 16 -2 19 1 4 3 -2 6 -13 5 -11 0 -14 -3 -6 -6z"/>
<path d="M3078 2613 c7 -3 16 -2 19 1 4 3 -2 6 -13 5 -11 0 -14 -3 -6 -6z"/>
<path d="M3171 2616 c7 -8 118 -10 126 -3 3 4 -24 7 -62 7 -38 0 -66 -2 -64
-4z"/>
<path d="M3338 2613 c6 -2 18 -2 25 0 6 3 1 5 -13 5 -14 0 -19 -2 -12 -5z"/>
<path d="M3431 2244 c0 -11 3 -14 6 -6 3 7 2 16 -1 19 -3 4 -6 -2 -5 -13z"/>
<path d="M7310 1082 c-77 -63 -299 -212 -315 -212 -6 0 -20 -7 -30 -15 -41
-31 -255 -165 -375 -235 -69 -40 -159 -93 -200 -117 -41 -25 -100 -59 -130
-75 -30 -17 -62 -36 -70 -43 -30 -25 -537 -286 -630 -324 -62 -25 -84 -34
-120 -49 -18 -8 257 -11 948 -11 l972 -1 0 555 c0 305 -3 555 -8 555 -4 0 -23
-13 -42 -28z"/>
</g>
</svg>
